<?xml version="1.0" encoding="UTF-8" standalone="no"?>
<!DOCTYPE svg PUBLIC "-//W3C//DTD SVG 1.1//EN"
 "http://www.w3.org/Graphics/SVG/1.1/DTD/svg11.dtd">
<!-- Generated by graphviz version 2.38.0 (20140413.2041)
 -->
<!-- Title: %3 Pages: 1 -->
<svg width="1076pt" height="1040pt"
 viewBox="0.00 0.00 1076.00 1040.00" xmlns="http://www.w3.org/2000/svg" xmlns:xlink="http://www.w3.org/1999/xlink">
<g id="graph0" class="graph" transform="scale(1 1) rotate(0) translate(4 1036)">
<title>%3</title>
<polygon fill="white" stroke="none" points="-4,4 -4,-1036 1072,-1036 1072,4 -4,4"/>
<!-- 0 -->
<g id="node1" class="node"><title>0</title>
<g id="a_node1"><a xlink:title="~">
<polygon fill="#0d1074" stroke="#0d1074" points="353,-664 252,-664 252,-612 353,-612 353,-664"/>
<text text-anchor="middle" x="302.5" y="-652" font-family="Arial" font-size="10.00" fill="#ffffff">~:0:&lt;_sre.compile&gt;</text>
<text text-anchor="middle" x="302.5" y="-641" font-family="Arial" font-size="10.00" fill="#ffffff">0.80%</text>
<text text-anchor="middle" x="302.5" y="-630" font-family="Arial" font-size="10.00" fill="#ffffff">(0.80%)</text>
<text text-anchor="middle" x="302.5" y="-619" font-family="Arial" font-size="10.00" fill="#ffffff">1×</text>
</a>
</g>
</g>
<!-- 1 -->
<g id="node2" class="node"><title>1</title>
<g id="a_node2"><a xlink:title="/usr/lib/python2.7/sre_compile.py">
<polygon fill="#ec7a03" stroke="#ec7a03" points="477,-756 352,-756 352,-704 477,-704 477,-756"/>
<text text-anchor="middle" x="414.5" y="-744" font-family="Arial" font-size="10.00" fill="#ffffff">sre_compile:567:compile</text>
<text text-anchor="middle" x="414.5" y="-733" font-family="Arial" font-size="10.00" fill="#ffffff">87.20%</text>
<text text-anchor="middle" x="414.5" y="-722" font-family="Arial" font-size="10.00" fill="#ffffff">(4.80%)</text>
<text text-anchor="middle" x="414.5" y="-711" font-family="Arial" font-size="10.00" fill="#ffffff">1×</text>
</a>
</g>
</g>
<!-- 1&#45;&gt;0 -->
<g id="edge1" class="edge"><title>1&#45;&gt;0</title>
<path fill="none" stroke="#0d1074" stroke-width="0.5" d="M383.302,-703.93C368.86,-692.325 351.66,-678.503 336.848,-666.601"/>
<polygon fill="#0d1074" stroke="#0d1074" stroke-width="0.5" points="337.415,-665.485 333.919,-664.248 335.88,-667.395 337.415,-665.485"/>
<text text-anchor="middle" x="386.5" y="-687" font-family="Arial" font-size="10.00" fill="#0d1074">0.80%</text>
<text text-anchor="middle" x="386.5" y="-676" font-family="Arial" font-size="10.00" fill="#0d1074">1×</text>
</g>
<!-- 21 -->
<g id="node3" class="node"><title>21</title>
<g id="a_node3"><a xlink:title="/usr/lib/python2.7/sre_parse.py">
<polygon fill="#0ba260" stroke="#0ba260" points="467,-664 362,-664 362,-612 467,-612 467,-664"/>
<text text-anchor="middle" x="414.5" y="-652" font-family="Arial" font-size="10.00" fill="#ffffff">sre_parse:706:parse</text>
<text text-anchor="middle" x="414.5" y="-641" font-family="Arial" font-size="10.00" fill="#ffffff">36.00%</text>
<text text-anchor="middle" x="414.5" y="-630" font-family="Arial" font-size="10.00" fill="#ffffff">(4.00%)</text>
<text text-anchor="middle" x="414.5" y="-619" font-family="Arial" font-size="10.00" fill="#ffffff">1×</text>
</a>
</g>
</g>
<!-- 1&#45;&gt;21 -->
<g id="edge2" class="edge"><title>1&#45;&gt;21</title>
<path fill="none" stroke="#0ba260" stroke-width="1.44" d="M414.5,-703.93C414.5,-693.582 414.5,-681.472 414.5,-670.532"/>
<polygon fill="#0ba260" stroke="#0ba260" stroke-width="1.44" points="416.6,-670.248 414.5,-664.248 412.4,-670.248 416.6,-670.248"/>
<text text-anchor="middle" x="431.5" y="-687" font-family="Arial" font-size="10.00" fill="#0ba260">36.00%</text>
<text text-anchor="middle" x="431.5" y="-676" font-family="Arial" font-size="10.00" fill="#0ba260">1×</text>
</g>
<!-- 25 -->
<g id="node4" class="node"><title>25</title>
<g id="a_node4"><a xlink:title="/usr/lib/python2.7/sre_compile.py">
<polygon fill="#0ab027" stroke="#0ab027" points="858,-664 741,-664 741,-612 858,-612 858,-664"/>
<text text-anchor="middle" x="799.5" y="-652" font-family="Arial" font-size="10.00" fill="#ffffff">sre_compile:552:_code</text>
<text text-anchor="middle" x="799.5" y="-641" font-family="Arial" font-size="10.00" fill="#ffffff">45.60%</text>
<text text-anchor="middle" x="799.5" y="-630" font-family="Arial" font-size="10.00" fill="#ffffff">(0.80%)</text>
<text text-anchor="middle" x="799.5" y="-619" font-family="Arial" font-size="10.00" fill="#ffffff">1×</text>
</a>
</g>
</g>
<!-- 1&#45;&gt;25 -->
<g id="edge3" class="edge"><title>1&#45;&gt;25</title>
<path fill="none" stroke="#0ab027" stroke-width="1.82" d="M477.169,-705.279C478.623,-704.838 480.068,-704.411 481.5,-704 567.469,-679.337 669.073,-660.271 733.88,-649.341"/>
<polygon fill="#0ab027" stroke="#0ab027" stroke-width="1.82" points="734.501,-651.65 740.815,-648.179 733.715,-646.956 734.501,-651.65"/>
<text text-anchor="middle" x="620.5" y="-687" font-family="Arial" font-size="10.00" fill="#0ab027">45.60%</text>
<text text-anchor="middle" x="620.5" y="-676" font-family="Arial" font-size="10.00" fill="#0ab027">1×</text>
</g>
<!-- 11 -->
<g id="node20" class="node"><title>11</title>
<g id="a_node20"><a xlink:title="/usr/lib/python2.7/sre_parse.py">
<polygon fill="#0c9a7f" stroke="#0c9a7f" points="480,-572 349,-572 349,-520 480,-520 480,-572"/>
<text text-anchor="middle" x="414.5" y="-560" font-family="Arial" font-size="10.00" fill="#ffffff">sre_parse:317:_parse_sub</text>
<text text-anchor="middle" x="414.5" y="-549" font-family="Arial" font-size="10.00" fill="#ffffff">29.60%</text>
<text text-anchor="middle" x="414.5" y="-538" font-family="Arial" font-size="10.00" fill="#ffffff">(5.60%)</text>
<text text-anchor="middle" x="414.5" y="-527" font-family="Arial" font-size="10.00" fill="#ffffff">1×</text>
</a>
</g>
</g>
<!-- 21&#45;&gt;11 -->
<g id="edge36" class="edge"><title>21&#45;&gt;11</title>
<path fill="none" stroke="#0c9a7f" stroke-width="1.18" d="M414.5,-611.93C414.5,-601.389 414.5,-589.019 414.5,-577.92"/>
<polygon fill="#0c9a7f" stroke="#0c9a7f" stroke-width="1.18" points="416.39,-577.648 414.5,-572.248 412.61,-577.648 416.39,-577.648"/>
<text text-anchor="middle" x="431.5" y="-595" font-family="Arial" font-size="10.00" fill="#0c9a7f">29.60%</text>
<text text-anchor="middle" x="431.5" y="-584" font-family="Arial" font-size="10.00" fill="#0c9a7f">1×</text>
</g>
<!-- 22 -->
<g id="node29" class="node"><title>22</title>
<g id="a_node29"><a xlink:title="/usr/lib/python2.7/sre_parse.py">
<polygon fill="#0d1776" stroke="#0d1776" points="115,-511 7.10543e-15,-511 7.10543e-15,-459 115,-459 115,-511"/>
<text text-anchor="middle" x="57.5" y="-499" font-family="Arial" font-size="10.00" fill="#ffffff">sre_parse:189:__init__</text>
<text text-anchor="middle" x="57.5" y="-488" font-family="Arial" font-size="10.00" fill="#ffffff">2.40%</text>
<text text-anchor="middle" x="57.5" y="-477" font-family="Arial" font-size="10.00" fill="#ffffff">(0.80%)</text>
<text text-anchor="middle" x="57.5" y="-466" font-family="Arial" font-size="10.00" fill="#ffffff">1×</text>
</a>
</g>
</g>
<!-- 21&#45;&gt;22 -->
<g id="edge37" class="edge"><title>21&#45;&gt;22</title>
<path fill="none" stroke="#0d1776" stroke-width="0.5" d="M361.72,-613.816C360.299,-613.203 358.89,-612.597 357.5,-612 275.048,-576.606 179.423,-536.628 118.712,-511.379"/>
<polygon fill="#0d1776" stroke="#0d1776" stroke-width="0.5" points="118.828,-510.1 115.126,-509.888 117.887,-512.363 118.828,-510.1"/>
<text text-anchor="middle" x="348.5" y="-595" font-family="Arial" font-size="10.00" fill="#0d1776">2.40%</text>
<text text-anchor="middle" x="348.5" y="-584" font-family="Arial" font-size="10.00" fill="#0d1776">1×</text>
</g>
<!-- 6 -->
<g id="node11" class="node"><title>6</title>
<g id="a_node11"><a xlink:title="/usr/lib/python2.7/sre_compile.py">
<polygon fill="#0c9787" stroke="#0c9787" points="874.5,-572 724.5,-572 724.5,-520 874.5,-520 874.5,-572"/>
<text text-anchor="middle" x="799.5" y="-560" font-family="Arial" font-size="10.00" fill="#ffffff">sre_compile:433:_compile_info</text>
<text text-anchor="middle" x="799.5" y="-549" font-family="Arial" font-size="10.00" fill="#ffffff">28.00%</text>
<text text-anchor="middle" x="799.5" y="-538" font-family="Arial" font-size="10.00" fill="#ffffff">(8.00%)</text>
<text text-anchor="middle" x="799.5" y="-527" font-family="Arial" font-size="10.00" fill="#ffffff">1×</text>
</a>
</g>
</g>
<!-- 25&#45;&gt;6 -->
<g id="edge39" class="edge"><title>25&#45;&gt;6</title>
<path fill="none" stroke="#0c9787" stroke-width="1.12" d="M799.5,-611.93C799.5,-601.292 799.5,-588.792 799.5,-577.614"/>
<polygon fill="#0c9787" stroke="#0c9787" stroke-width="1.12" points="801.355,-577.548 799.5,-572.248 797.645,-577.548 801.355,-577.548"/>
<text text-anchor="middle" x="816.5" y="-595" font-family="Arial" font-size="10.00" fill="#0c9787">28.00%</text>
<text text-anchor="middle" x="816.5" y="-584" font-family="Arial" font-size="10.00" fill="#0c9787">1×</text>
</g>
<!-- 10 -->
<g id="node19" class="node"><title>10</title>
<g id="a_node19"><a xlink:title="/usr/lib/python2.7/sre_compile.py">
<polygon fill="#0c6089" stroke="#0c6089" points="1016,-572 891,-572 891,-520 1016,-520 1016,-572"/>
<text text-anchor="middle" x="953.5" y="-560" font-family="Arial" font-size="10.00" fill="#ffffff">sre_compile:64:_compile</text>
<text text-anchor="middle" x="953.5" y="-549" font-family="Arial" font-size="10.00" fill="#ffffff">16.80%</text>
<text text-anchor="middle" x="953.5" y="-538" font-family="Arial" font-size="10.00" fill="#ffffff">(11.20%)</text>
<text text-anchor="middle" x="953.5" y="-527" font-family="Arial" font-size="10.00" fill="#ffffff">3×</text>
</a>
</g>
</g>
<!-- 25&#45;&gt;10 -->
<g id="edge40" class="edge"><title>25&#45;&gt;10</title>
<path fill="none" stroke="#0c6089" stroke-width="0.67" d="M842.398,-611.93C862.422,-600.227 886.302,-586.271 906.783,-574.302"/>
<polygon fill="#0c6089" stroke="#0c6089" stroke-width="0.67" points="907.75,-575.399 910.566,-572.092 906.302,-572.921 907.75,-575.399"/>
<text text-anchor="middle" x="912.5" y="-595" font-family="Arial" font-size="10.00" fill="#0c6089">16.80%</text>
<text text-anchor="middle" x="912.5" y="-584" font-family="Arial" font-size="10.00" fill="#0c6089">1×</text>
</g>
<!-- 2 -->
<g id="node5" class="node"><title>2</title>
<g id="a_node5"><a xlink:title="/usr/lib/python2.7/re.py">
<polygon fill="#fa2101" stroke="#fa2101" points="553.5,-940 473.5,-940 473.5,-888 553.5,-888 553.5,-940"/>
<text text-anchor="middle" x="513.5" y="-928" font-family="Arial" font-size="10.00" fill="#ffffff">re:192:compile</text>
<text text-anchor="middle" x="513.5" y="-917" font-family="Arial" font-size="10.00" fill="#ffffff">96.80%</text>
<text text-anchor="middle" x="513.5" y="-906" font-family="Arial" font-size="10.00" fill="#ffffff">(1.60%)</text>
<text text-anchor="middle" x="513.5" y="-895" font-family="Arial" font-size="10.00" fill="#ffffff">1×</text>
</a>
</g>
</g>
<!-- 5 -->
<g id="node6" class="node"><title>5</title>
<g id="a_node6"><a xlink:title="/usr/lib/python2.7/re.py">
<polygon fill="#f83101" stroke="#f83101" points="556.5,-848 470.5,-848 470.5,-796 556.5,-796 556.5,-848"/>
<text text-anchor="middle" x="513.5" y="-836" font-family="Arial" font-size="10.00" fill="#ffffff">re:230:_compile</text>
<text text-anchor="middle" x="513.5" y="-825" font-family="Arial" font-size="10.00" fill="#ffffff">95.20%</text>
<text text-anchor="middle" x="513.5" y="-814" font-family="Arial" font-size="10.00" fill="#ffffff">(7.20%)</text>
<text text-anchor="middle" x="513.5" y="-803" font-family="Arial" font-size="10.00" fill="#ffffff">1×</text>
</a>
</g>
</g>
<!-- 2&#45;&gt;5 -->
<g id="edge4" class="edge"><title>2&#45;&gt;5</title>
<path fill="none" stroke="#f83101" stroke-width="3.81" d="M513.5,-887.93C513.5,-878.743 513.5,-868.166 513.5,-858.253"/>
<polygon fill="#f83101" stroke="#f83101" stroke-width="3.81" points="516.93,-858.048 513.5,-848.248 510.07,-858.048 516.93,-858.048"/>
<text text-anchor="middle" x="530.5" y="-871" font-family="Arial" font-size="10.00" fill="#f83101">95.20%</text>
<text text-anchor="middle" x="530.5" y="-860" font-family="Arial" font-size="10.00" fill="#f83101">1×</text>
</g>
<!-- 5&#45;&gt;1 -->
<g id="edge7" class="edge"><title>5&#45;&gt;1</title>
<path fill="none" stroke="#ec7a03" stroke-width="3.49" d="M485.923,-795.93C474.54,-785.582 461.219,-773.472 449.185,-762.532"/>
<polygon fill="#ec7a03" stroke="#ec7a03" stroke-width="3.49" points="451.344,-760.095 442.272,-756.248 446.964,-764.912 451.344,-760.095"/>
<text text-anchor="middle" x="493.5" y="-779" font-family="Arial" font-size="10.00" fill="#ec7a03">87.20%</text>
<text text-anchor="middle" x="493.5" y="-768" font-family="Arial" font-size="10.00" fill="#ec7a03">1×</text>
</g>
<!-- 24 -->
<g id="node10" class="node"><title>24</title>
<g id="a_node10"><a xlink:title="/usr/lib/python2.7/sre_compile.py">
<polygon fill="#0d1074" stroke="#0d1074" points="608.5,-756 486.5,-756 486.5,-704 608.5,-704 608.5,-756"/>
<text text-anchor="middle" x="547.5" y="-744" font-family="Arial" font-size="10.00" fill="#ffffff">sre_compile:546:isstring</text>
<text text-anchor="middle" x="547.5" y="-733" font-family="Arial" font-size="10.00" fill="#ffffff">0.80%</text>
<text text-anchor="middle" x="547.5" y="-722" font-family="Arial" font-size="10.00" fill="#ffffff">(0.80%)</text>
<text text-anchor="middle" x="547.5" y="-711" font-family="Arial" font-size="10.00" fill="#ffffff">2×</text>
</a>
</g>
</g>
<!-- 5&#45;&gt;24 -->
<g id="edge8" class="edge"><title>5&#45;&gt;24</title>
<path fill="none" stroke="#0d1074" stroke-width="0.5" d="M522.971,-795.93C527.209,-784.712 532.229,-771.422 536.621,-759.798"/>
<polygon fill="#0d1074" stroke="#0d1074" stroke-width="0.5" points="537.871,-759.955 537.962,-756.248 535.579,-759.089 537.871,-759.955"/>
<text text-anchor="middle" x="549.5" y="-779" font-family="Arial" font-size="10.00" fill="#0d1074">0.80%</text>
<text text-anchor="middle" x="549.5" y="-768" font-family="Arial" font-size="10.00" fill="#0d1074">1×</text>
</g>
<!-- 3 -->
<g id="node7" class="node"><title>3</title>
<g id="a_node7"><a xlink:title="script.py">
<polygon fill="#fe0800" stroke="#fe0800" points="561,-1032 466,-1032 466,-980 561,-980 561,-1032"/>
<text text-anchor="middle" x="513.5" y="-1020" font-family="Arial" font-size="10.00" fill="#ffffff">script:1:&lt;module&gt;</text>
<text text-anchor="middle" x="513.5" y="-1009" font-family="Arial" font-size="10.00" fill="#ffffff">99.20%</text>
<text text-anchor="middle" x="513.5" y="-998" font-family="Arial" font-size="10.00" fill="#ffffff">(2.40%)</text>
<text text-anchor="middle" x="513.5" y="-987" font-family="Arial" font-size="10.00" fill="#ffffff">1×</text>
</a>
</g>
</g>
<!-- 3&#45;&gt;2 -->
<g id="edge5" class="edge"><title>3&#45;&gt;2</title>
<path fill="none" stroke="#fa2101" stroke-width="3.87" d="M513.5,-979.93C513.5,-970.743 513.5,-960.166 513.5,-950.253"/>
<polygon fill="#fa2101" stroke="#fa2101" stroke-width="3.87" points="516.93,-950.048 513.5,-940.248 510.07,-950.048 516.93,-950.048"/>
<text text-anchor="middle" x="530.5" y="-963" font-family="Arial" font-size="10.00" fill="#fa2101">96.80%</text>
<text text-anchor="middle" x="530.5" y="-952" font-family="Arial" font-size="10.00" fill="#fa2101">1×</text>
</g>
<!-- 4 -->
<g id="node8" class="node"><title>4</title>
<g id="a_node8"><a xlink:title="~">
<polygon fill="#0d1a77" stroke="#0d1a77" points="442,-144 383,-144 383,-92 442,-92 442,-144"/>
<text text-anchor="middle" x="412.5" y="-132" font-family="Arial" font-size="10.00" fill="#ffffff">~:0:&lt;len&gt;</text>
<text text-anchor="middle" x="412.5" y="-121" font-family="Arial" font-size="10.00" fill="#ffffff">3.20%</text>
<text text-anchor="middle" x="412.5" y="-110" font-family="Arial" font-size="10.00" fill="#ffffff">(2.40%)</text>
<text text-anchor="middle" x="412.5" y="-99" font-family="Arial" font-size="10.00" fill="#ffffff">39×</text>
</a>
</g>
</g>
<!-- 8 -->
<g id="node9" class="node"><title>8</title>
<g id="a_node9"><a xlink:title="/usr/lib/python2.7/sre_parse.py">
<polygon fill="#0d1375" stroke="#0d1375" points="493,-52 378,-52 378,-0 493,-0 493,-52"/>
<text text-anchor="middle" x="435.5" y="-40" font-family="Arial" font-size="10.00" fill="#ffffff">sre_parse:137:__len__</text>
<text text-anchor="middle" x="435.5" y="-29" font-family="Arial" font-size="10.00" fill="#ffffff">1.60%</text>
<text text-anchor="middle" x="435.5" y="-18" font-family="Arial" font-size="10.00" fill="#ffffff">(1.60%)</text>
<text text-anchor="middle" x="435.5" y="-7" font-family="Arial" font-size="10.00" fill="#ffffff">5×</text>
</a>
</g>
</g>
<!-- 4&#45;&gt;8 -->
<g id="edge6" class="edge"><title>4&#45;&gt;8</title>
<path fill="none" stroke="#0d1074" stroke-width="0.5" d="M415.27,-91.9206C416.674,-82.1597 418.693,-70.9509 421.5,-61 422.02,-59.1569 422.61,-57.2788 423.248,-55.3993"/>
<polygon fill="#0d1074" stroke="#0d1074" stroke-width="0.5" points="424.43,-55.7301 424.44,-52.0219 422.119,-54.9145 424.43,-55.7301"/>
<text text-anchor="middle" x="435.5" y="-75" font-family="Arial" font-size="10.00" fill="#0d1074">0.80%</text>
<text text-anchor="middle" x="435.5" y="-64" font-family="Arial" font-size="10.00" fill="#0d1074">1×</text>
</g>
<!-- 12 -->
<g id="node12" class="node"><title>12</title>
<g id="a_node12"><a xlink:title="/usr/lib/python2.7/sre_parse.py">
<polygon fill="#0d297b" stroke="#0d297b" points="1020.5,-450 886.5,-450 886.5,-398 1020.5,-398 1020.5,-450"/>
<text text-anchor="middle" x="953.5" y="-438" font-family="Arial" font-size="10.00" fill="#ffffff">sre_parse:141:__getitem__</text>
<text text-anchor="middle" x="953.5" y="-427" font-family="Arial" font-size="10.00" fill="#ffffff">6.40%</text>
<text text-anchor="middle" x="953.5" y="-416" font-family="Arial" font-size="10.00" fill="#ffffff">(4.80%)</text>
<text text-anchor="middle" x="953.5" y="-405" font-family="Arial" font-size="10.00" fill="#ffffff">12×</text>
</a>
</g>
</g>
<!-- 6&#45;&gt;12 -->
<g id="edge9" class="edge"><title>6&#45;&gt;12</title>
<path fill="none" stroke="#0d1074" stroke-width="0.5" d="M865.51,-519.97C870.402,-517.213 875.127,-514.224 879.5,-511 903.869,-493.037 903.706,-481.907 923.5,-459 925.198,-457.034 926.958,-455.011 928.733,-452.976"/>
<polygon fill="#0d1074" stroke="#0d1074" stroke-width="0.5" points="929.779,-453.641 931.161,-450.2 927.935,-452.028 929.779,-453.641"/>
<text text-anchor="middle" x="937.5" y="-488" font-family="Arial" font-size="10.00" fill="#0d1074">0.80%</text>
<text text-anchor="middle" x="937.5" y="-477" font-family="Arial" font-size="10.00" fill="#0d1074">2×</text>
</g>
<!-- 14 -->
<g id="node13" class="node"><title>14</title>
<g id="a_node13"><a xlink:title="/usr/lib/python2.7/sre_parse.py">
<polygon fill="#0d357e" stroke="#0d357e" points="637,-450 520,-450 520,-398 637,-398 637,-450"/>
<text text-anchor="middle" x="578.5" y="-438" font-family="Arial" font-size="10.00" fill="#ffffff">sre_parse:151:getwidth</text>
<text text-anchor="middle" x="578.5" y="-427" font-family="Arial" font-size="10.00" fill="#ffffff">8.80%</text>
<text text-anchor="middle" x="578.5" y="-416" font-family="Arial" font-size="10.00" fill="#ffffff">(5.60%)</text>
<text text-anchor="middle" x="578.5" y="-405" font-family="Arial" font-size="10.00" fill="#ffffff">3×</text>
</a>
</g>
</g>
<!-- 6&#45;&gt;14 -->
<g id="edge10" class="edge"><title>6&#45;&gt;14</title>
<path fill="none" stroke="#0d357e" stroke-width="0.5" d="M753.44,-519.99C716.774,-500.081 665.556,-472.27 628.014,-451.885"/>
<polygon fill="#0d357e" stroke="#0d357e" stroke-width="0.5" points="628.541,-450.778 624.88,-450.184 627.372,-452.931 628.541,-450.778"/>
<text text-anchor="middle" x="748.5" y="-488" font-family="Arial" font-size="10.00" fill="#0d357e">8.80%</text>
<text text-anchor="middle" x="748.5" y="-477" font-family="Arial" font-size="10.00" fill="#0d357e">1×</text>
</g>
<!-- 19 -->
<g id="node14" class="node"><title>19</title>
<g id="a_node14"><a xlink:title="/usr/lib/python2.7/sre_compile.py">
<polygon fill="#0d397f" stroke="#0d397f" points="859,-450 692,-450 692,-398 859,-398 859,-450"/>
<text text-anchor="middle" x="775.5" y="-438" font-family="Arial" font-size="10.00" fill="#ffffff">sre_compile:228:_compile_charset</text>
<text text-anchor="middle" x="775.5" y="-427" font-family="Arial" font-size="10.00" fill="#ffffff">9.60%</text>
<text text-anchor="middle" x="775.5" y="-416" font-family="Arial" font-size="10.00" fill="#ffffff">(1.60%)</text>
<text text-anchor="middle" x="775.5" y="-405" font-family="Arial" font-size="10.00" fill="#ffffff">1×</text>
</a>
</g>
</g>
<!-- 6&#45;&gt;19 -->
<g id="edge11" class="edge"><title>6&#45;&gt;19</title>
<path fill="none" stroke="#0d397f" stroke-width="0.5" d="M794.469,-519.844C790.629,-500.644 785.332,-474.158 781.311,-454.054"/>
<polygon fill="#0d397f" stroke="#0d397f" stroke-width="0.5" points="782.412,-453.315 780.525,-450.123 780.01,-453.795 782.412,-453.315"/>
<text text-anchor="middle" x="806.5" y="-488" font-family="Arial" font-size="10.00" fill="#0d397f">9.60%</text>
<text text-anchor="middle" x="806.5" y="-477" font-family="Arial" font-size="10.00" fill="#0d397f">1×</text>
</g>
<!-- 31 -->
<g id="node15" class="node"><title>31</title>
<g id="a_node15"><a xlink:title="~">
<polygon fill="#0d1e78" stroke="#0d1e78" points="743,-236 564,-236 564,-184 743,-184 743,-236"/>
<text text-anchor="middle" x="653.5" y="-224" font-family="Arial" font-size="10.00" fill="#ffffff">~:0:&lt;method &#39;append&#39; of &#39;list&#39; objects&gt;</text>
<text text-anchor="middle" x="653.5" y="-213" font-family="Arial" font-size="10.00" fill="#ffffff">4.00%</text>
<text text-anchor="middle" x="653.5" y="-202" font-family="Arial" font-size="10.00" fill="#ffffff">(4.00%)</text>
<text text-anchor="middle" x="653.5" y="-191" font-family="Arial" font-size="10.00" fill="#ffffff">48×</text>
</a>
</g>
</g>
<!-- 6&#45;&gt;31 -->
<g id="edge12" class="edge"><title>6&#45;&gt;31</title>
<path fill="none" stroke="#0d1074" stroke-width="0.5" d="M822.589,-519.766C837.426,-501.776 855.39,-476.218 863.5,-450 886.353,-376.119 880.78,-351.602 864.5,-276 861.318,-261.221 862.831,-253.745 850.5,-245 831.759,-231.708 770.131,-239.967 747.5,-236 747.235,-235.954 746.969,-235.907 746.704,-235.859"/>
<polygon fill="#0d1074" stroke="#0d1074" stroke-width="0.5" points="746.895,-234.649 743.232,-235.224 746.454,-237.059 746.895,-234.649"/>
<text text-anchor="middle" x="893.5" y="-366" font-family="Arial" font-size="10.00" fill="#0d1074">0.80%</text>
<text text-anchor="middle" x="893.5" y="-355" font-family="Arial" font-size="10.00" fill="#0d1074">7×</text>
</g>
<!-- 23 -->
<g id="node24" class="node"><title>23</title>
<g id="a_node24"><a xlink:title="~">
<polygon fill="#0d1375" stroke="#0d1375" points="998.5,-328 908.5,-328 908.5,-276 998.5,-276 998.5,-328"/>
<text text-anchor="middle" x="953.5" y="-316" font-family="Arial" font-size="10.00" fill="#ffffff">~:0:&lt;isinstance&gt;</text>
<text text-anchor="middle" x="953.5" y="-305" font-family="Arial" font-size="10.00" fill="#ffffff">1.60%</text>
<text text-anchor="middle" x="953.5" y="-294" font-family="Arial" font-size="10.00" fill="#ffffff">(1.60%)</text>
<text text-anchor="middle" x="953.5" y="-283" font-family="Arial" font-size="10.00" fill="#ffffff">15×</text>
</a>
</g>
</g>
<!-- 12&#45;&gt;23 -->
<g id="edge26" class="edge"><title>12&#45;&gt;23</title>
<path fill="none" stroke="#0d1375" stroke-width="0.5" d="M953.5,-397.844C953.5,-378.644 953.5,-352.158 953.5,-332.054"/>
<polygon fill="#0d1375" stroke="#0d1375" stroke-width="0.5" points="954.725,-331.623 953.5,-328.123 952.275,-331.623 954.725,-331.623"/>
<text text-anchor="middle" x="967.5" y="-366" font-family="Arial" font-size="10.00" fill="#0d1375">1.60%</text>
<text text-anchor="middle" x="967.5" y="-355" font-family="Arial" font-size="10.00" fill="#0d1375">12×</text>
</g>
<!-- 14&#45;&gt;14 -->
<g id="edge28" class="edge"><title>14&#45;&gt;14</title>
<path fill="none" stroke="#0d1e78" stroke-width="0.5" d="M637.286,-432.94C642.635,-431.082 646,-428.102 646,-424 646,-420.924 644.107,-418.479 640.904,-416.664"/>
<polygon fill="#0d1e78" stroke="#0d1e78" stroke-width="0.5" points="640.982,-415.359 637.286,-415.06 639.989,-417.598 640.982,-415.359"/>
<text text-anchor="middle" x="660" y="-427" font-family="Arial" font-size="10.00" fill="#0d1e78">4.00%</text>
<text text-anchor="middle" x="660" y="-416" font-family="Arial" font-size="10.00" fill="#0d1e78">2×</text>
</g>
<!-- 13 -->
<g id="node25" class="node"><title>13</title>
<g id="a_node25"><a xlink:title="~">
<polygon fill="#0d1776" stroke="#0d1776" points="635.5,-328 573.5,-328 573.5,-276 635.5,-276 635.5,-328"/>
<text text-anchor="middle" x="604.5" y="-316" font-family="Arial" font-size="10.00" fill="#ffffff">~:0:&lt;min&gt;</text>
<text text-anchor="middle" x="604.5" y="-305" font-family="Arial" font-size="10.00" fill="#ffffff">2.40%</text>
<text text-anchor="middle" x="604.5" y="-294" font-family="Arial" font-size="10.00" fill="#ffffff">(2.40%)</text>
<text text-anchor="middle" x="604.5" y="-283" font-family="Arial" font-size="10.00" fill="#ffffff">8×</text>
</a>
</g>
</g>
<!-- 14&#45;&gt;13 -->
<g id="edge27" class="edge"><title>14&#45;&gt;13</title>
<path fill="none" stroke="#0d1776" stroke-width="0.5" d="M583.95,-397.844C588.145,-378.484 593.945,-351.716 598.313,-331.553"/>
<polygon fill="#0d1776" stroke="#0d1776" stroke-width="0.5" points="599.513,-331.803 599.057,-328.123 597.118,-331.284 599.513,-331.803"/>
<text text-anchor="middle" x="611.5" y="-366" font-family="Arial" font-size="10.00" fill="#0d1776">2.40%</text>
<text text-anchor="middle" x="611.5" y="-355" font-family="Arial" font-size="10.00" fill="#0d1776">8×</text>
</g>
<!-- 26 -->
<g id="node26" class="node"><title>26</title>
<g id="a_node26"><a xlink:title="~">
<polygon fill="#0d1074" stroke="#0d1074" points="564,-328 499,-328 499,-276 564,-276 564,-328"/>
<text text-anchor="middle" x="531.5" y="-316" font-family="Arial" font-size="10.00" fill="#ffffff">~:0:&lt;max&gt;</text>
<text text-anchor="middle" x="531.5" y="-305" font-family="Arial" font-size="10.00" fill="#ffffff">0.80%</text>
<text text-anchor="middle" x="531.5" y="-294" font-family="Arial" font-size="10.00" fill="#ffffff">(0.80%)</text>
<text text-anchor="middle" x="531.5" y="-283" font-family="Arial" font-size="10.00" fill="#ffffff">2×</text>
</a>
</g>
</g>
<!-- 14&#45;&gt;26 -->
<g id="edge29" class="edge"><title>14&#45;&gt;26</title>
<path fill="none" stroke="#0d1074" stroke-width="0.5" d="M561.089,-397.837C559.415,-394.924 557.844,-391.942 556.5,-389 548.149,-370.725 541.859,-348.986 537.677,-331.937"/>
<polygon fill="#0d1074" stroke="#0d1074" stroke-width="0.5" points="538.776,-331.268 536.764,-328.153 536.394,-331.842 538.776,-331.268"/>
<text text-anchor="middle" x="570.5" y="-366" font-family="Arial" font-size="10.00" fill="#0d1074">0.80%</text>
<text text-anchor="middle" x="570.5" y="-355" font-family="Arial" font-size="10.00" fill="#0d1074">2×</text>
</g>
<!-- 19&#45;&gt;31 -->
<g id="edge35" class="edge"><title>19&#45;&gt;31</title>
<path fill="none" stroke="#0d1074" stroke-width="0.5" d="M727.488,-397.893C701.822,-381.676 672.494,-357.994 657.5,-328 643.728,-300.45 644.859,-264.516 648.076,-239.78"/>
<polygon fill="#0d1074" stroke="#0d1074" stroke-width="0.5" points="649.303,-239.848 648.564,-236.214 646.876,-239.515 649.303,-239.848"/>
<text text-anchor="middle" x="671.5" y="-305" font-family="Arial" font-size="10.00" fill="#0d1074">0.80%</text>
<text text-anchor="middle" x="671.5" y="-294" font-family="Arial" font-size="10.00" fill="#0d1074">5×</text>
</g>
<!-- 9 -->
<g id="node17" class="node"><title>9</title>
<g id="a_node17"><a xlink:title="/usr/lib/python2.7/sre_compile.py">
<polygon fill="#0d2d7c" stroke="#0d2d7c" points="860.5,-328 690.5,-328 690.5,-276 860.5,-276 860.5,-328"/>
<text text-anchor="middle" x="775.5" y="-316" font-family="Arial" font-size="10.00" fill="#ffffff">sre_compile:256:_optimize_charset</text>
<text text-anchor="middle" x="775.5" y="-305" font-family="Arial" font-size="10.00" fill="#ffffff">7.20%</text>
<text text-anchor="middle" x="775.5" y="-294" font-family="Arial" font-size="10.00" fill="#ffffff">(4.00%)</text>
<text text-anchor="middle" x="775.5" y="-283" font-family="Arial" font-size="10.00" fill="#ffffff">1×</text>
</a>
</g>
</g>
<!-- 19&#45;&gt;9 -->
<g id="edge34" class="edge"><title>19&#45;&gt;9</title>
<path fill="none" stroke="#0d2d7c" stroke-width="0.5" d="M775.5,-397.844C775.5,-378.644 775.5,-352.158 775.5,-332.054"/>
<polygon fill="#0d2d7c" stroke="#0d2d7c" stroke-width="0.5" points="776.725,-331.623 775.5,-328.123 774.275,-331.623 776.725,-331.623"/>
<text text-anchor="middle" x="789.5" y="-366" font-family="Arial" font-size="10.00" fill="#0d2d7c">7.20%</text>
<text text-anchor="middle" x="789.5" y="-355" font-family="Arial" font-size="10.00" fill="#0d2d7c">1×</text>
</g>
<!-- 7 -->
<g id="node16" class="node"><title>7</title>
<g id="a_node16"><a xlink:title="/usr/lib/python2.7/sre_parse.py">
<polygon fill="#0d257a" stroke="#0d257a" points="134.5,-236 24.5,-236 24.5,-184 134.5,-184 134.5,-236"/>
<text text-anchor="middle" x="79.5" y="-224" font-family="Arial" font-size="10.00" fill="#ffffff">sre_parse:193:__next</text>
<text text-anchor="middle" x="79.5" y="-213" font-family="Arial" font-size="10.00" fill="#ffffff">5.60%</text>
<text text-anchor="middle" x="79.5" y="-202" font-family="Arial" font-size="10.00" fill="#ffffff">(4.00%)</text>
<text text-anchor="middle" x="79.5" y="-191" font-family="Arial" font-size="10.00" fill="#ffffff">10×</text>
</a>
</g>
</g>
<!-- 7&#45;&gt;4 -->
<g id="edge13" class="edge"><title>7&#45;&gt;4</title>
<path fill="none" stroke="#0d1375" stroke-width="0.5" d="M134.862,-194.037C204.535,-175.207 321.99,-143.462 379.191,-128.002"/>
<polygon fill="#0d1375" stroke="#0d1375" stroke-width="0.5" points="379.811,-129.104 382.87,-127.008 379.172,-126.739 379.811,-129.104"/>
<text text-anchor="middle" x="300.5" y="-167" font-family="Arial" font-size="10.00" fill="#0d1375">1.60%</text>
<text text-anchor="middle" x="300.5" y="-156" font-family="Arial" font-size="10.00" fill="#0d1375">17×</text>
</g>
<!-- 9&#45;&gt;31 -->
<g id="edge15" class="edge"><title>9&#45;&gt;31</title>
<path fill="none" stroke="#0d1074" stroke-width="0.5" d="M741.516,-275.93C725.785,-264.325 707.049,-250.503 690.915,-238.601"/>
<polygon fill="#0d1074" stroke="#0d1074" stroke-width="0.5" points="691.268,-237.34 687.725,-236.248 689.814,-239.311 691.268,-237.34"/>
<text text-anchor="middle" x="743.5" y="-259" font-family="Arial" font-size="10.00" fill="#0d1074">0.80%</text>
<text text-anchor="middle" x="743.5" y="-248" font-family="Arial" font-size="10.00" fill="#0d1074">4×</text>
</g>
<!-- 17 -->
<g id="node18" class="node"><title>17</title>
<g id="a_node18"><a xlink:title="~">
<polygon fill="#0d1776" stroke="#0d1776" points="943,-236 752,-236 752,-184 943,-184 943,-236"/>
<text text-anchor="middle" x="847.5" y="-224" font-family="Arial" font-size="10.00" fill="#ffffff">~:0:&lt;method &#39;find&#39; of &#39;bytearray&#39; objects&gt;</text>
<text text-anchor="middle" x="847.5" y="-213" font-family="Arial" font-size="10.00" fill="#ffffff">2.40%</text>
<text text-anchor="middle" x="847.5" y="-202" font-family="Arial" font-size="10.00" fill="#ffffff">(2.40%)</text>
<text text-anchor="middle" x="847.5" y="-191" font-family="Arial" font-size="10.00" fill="#ffffff">5×</text>
</a>
</g>
</g>
<!-- 9&#45;&gt;17 -->
<g id="edge14" class="edge"><title>9&#45;&gt;17</title>
<path fill="none" stroke="#0d1776" stroke-width="0.5" d="M795.556,-275.93C804.685,-264.518 815.529,-250.963 824.942,-239.198"/>
<polygon fill="#0d1776" stroke="#0d1776" stroke-width="0.5" points="826.072,-239.746 827.302,-236.248 824.159,-238.216 826.072,-239.746"/>
<text text-anchor="middle" x="834.5" y="-259" font-family="Arial" font-size="10.00" fill="#0d1776">2.40%</text>
<text text-anchor="middle" x="834.5" y="-248" font-family="Arial" font-size="10.00" fill="#0d1776">5×</text>
</g>
<!-- 10&#45;&gt;12 -->
<g id="edge17" class="edge"><title>10&#45;&gt;12</title>
<path fill="none" stroke="#0d2179" stroke-width="0.5" d="M953.5,-519.844C953.5,-500.644 953.5,-474.158 953.5,-454.054"/>
<polygon fill="#0d2179" stroke="#0d2179" stroke-width="0.5" points="954.725,-453.623 953.5,-450.123 952.275,-453.623 954.725,-453.623"/>
<text text-anchor="middle" x="967.5" y="-488" font-family="Arial" font-size="10.00" fill="#0d2179">4.80%</text>
<text text-anchor="middle" x="967.5" y="-477" font-family="Arial" font-size="10.00" fill="#0d2179">8×</text>
</g>
<!-- 10&#45;&gt;31 -->
<g id="edge18" class="edge"><title>10&#45;&gt;31</title>
<path fill="none" stroke="#0d1074" stroke-width="0.5" d="M979.93,-519.993C996.519,-502.293 1016.27,-476.983 1024.5,-450 1038.67,-403.5 1002.86,-276.374 1002.5,-276 962.813,-234.587 804.049,-245.611 747.5,-236 747.235,-235.955 746.969,-235.909 746.703,-235.863"/>
<polygon fill="#0d1074" stroke="#0d1074" stroke-width="0.5" points="746.889,-234.652 743.228,-235.245 746.459,-237.064 746.889,-234.652"/>
<text text-anchor="middle" x="1040.5" y="-366" font-family="Arial" font-size="10.00" fill="#0d1074">0.80%</text>
<text text-anchor="middle" x="1040.5" y="-355" font-family="Arial" font-size="10.00" fill="#0d1074">22×</text>
</g>
<!-- 10&#45;&gt;10 -->
<g id="edge16" class="edge"><title>10&#45;&gt;10</title>
<path fill="none" stroke="#0d4181" stroke-width="0.5" d="M1016.25,-552.73C1021.64,-551.298 1025,-549.055 1025,-546 1025,-543.709 1023.11,-541.874 1019.89,-540.496"/>
<polygon fill="#0d4181" stroke="#0d4181" stroke-width="0.5" points="1019.96,-539.227 1016.25,-539.27 1019.18,-541.548 1019.96,-539.227"/>
<text text-anchor="middle" x="1042" y="-549" font-family="Arial" font-size="10.00" fill="#0d4181">11.20%</text>
<text text-anchor="middle" x="1042" y="-538" font-family="Arial" font-size="10.00" fill="#0d4181">2×</text>
</g>
<!-- 11&#45;&gt;4 -->
<g id="edge19" class="edge"><title>11&#45;&gt;4</title>
<path fill="none" stroke="#0d1375" stroke-width="0.5" d="M414.5,-519.716C414.5,-495.432 414.5,-457.708 414.5,-425 414.5,-425 414.5,-425 414.5,-209 414.5,-188.658 413.983,-165.736 413.475,-148.116"/>
<polygon fill="#0d1375" stroke="#0d1375" stroke-width="0.5" points="414.687,-147.675 413.36,-144.213 412.238,-147.747 414.687,-147.675"/>
<text text-anchor="middle" x="428.5" y="-305" font-family="Arial" font-size="10.00" fill="#0d1375">1.60%</text>
<text text-anchor="middle" x="428.5" y="-294" font-family="Arial" font-size="10.00" fill="#0d1375">2×</text>
</g>
<!-- 11&#45;&gt;8 -->
<g id="edge20" class="edge"><title>11&#45;&gt;8</title>
<path fill="none" stroke="#0d1074" stroke-width="0.5" d="M428.954,-519.679C441.103,-495.987 456.5,-459.212 456.5,-425 456.5,-425 456.5,-425 456.5,-117 456.5,-91.7917 453.72,-85.4288 447.5,-61 447.037,-59.1802 446.517,-57.3199 445.961,-55.4538"/>
<polygon fill="#0d1074" stroke="#0d1074" stroke-width="0.5" points="447.127,-55.0787 444.924,-52.0957 444.786,-55.8014 447.127,-55.0787"/>
<text text-anchor="middle" x="470.5" y="-259" font-family="Arial" font-size="10.00" fill="#0d1074">0.80%</text>
<text text-anchor="middle" x="470.5" y="-248" font-family="Arial" font-size="10.00" fill="#0d1074">2×</text>
</g>
<!-- 11&#45;&gt;12 -->
<g id="edge21" class="edge"><title>11&#45;&gt;12</title>
<path fill="none" stroke="#0d1074" stroke-width="0.5" d="M471.272,-519.98C527.716,-495.198 606.975,-460.692 614.5,-459 668.521,-446.857 808.782,-458.468 863.5,-450 869.72,-449.037 876.123,-447.792 882.51,-446.372"/>
<polygon fill="#0d1074" stroke="#0d1074" stroke-width="0.5" points="882.914,-447.536 886.055,-445.565 882.371,-445.147 882.914,-447.536"/>
<text text-anchor="middle" x="628.5" y="-488" font-family="Arial" font-size="10.00" fill="#0d1074">0.80%</text>
<text text-anchor="middle" x="628.5" y="-477" font-family="Arial" font-size="10.00" fill="#0d1074">2×</text>
</g>
<!-- 11&#45;&gt;31 -->
<g id="edge25" class="edge"><title>11&#45;&gt;31</title>
<path fill="none" stroke="#0d1074" stroke-width="0.5" d="M456.565,-519.879C459.195,-517.142 461.559,-514.182 463.5,-511 518.356,-421.059 430.164,-359.422 494.5,-276 510.884,-254.756 535.387,-240.416 560.281,-230.751"/>
<polygon fill="#0d1074" stroke="#0d1074" stroke-width="0.5" points="560.798,-231.865 563.636,-229.477 559.929,-229.574 560.798,-231.865"/>
<text text-anchor="middle" x="489.5" y="-366" font-family="Arial" font-size="10.00" fill="#0d1074">0.80%</text>
<text text-anchor="middle" x="489.5" y="-355" font-family="Arial" font-size="10.00" fill="#0d1074">2×</text>
</g>
<!-- 16 -->
<g id="node21" class="node"><title>16</title>
<g id="a_node21"><a xlink:title="/usr/lib/python2.7/sre_parse.py">
<polygon fill="#0c698b" stroke="#0c698b" points="350.5,-450 240.5,-450 240.5,-398 350.5,-398 350.5,-450"/>
<text text-anchor="middle" x="295.5" y="-438" font-family="Arial" font-size="10.00" fill="#ffffff">sre_parse:395:_parse</text>
<text text-anchor="middle" x="295.5" y="-427" font-family="Arial" font-size="10.00" fill="#ffffff">18.40%</text>
<text text-anchor="middle" x="295.5" y="-416" font-family="Arial" font-size="10.00" fill="#ffffff">(9.60%)</text>
<text text-anchor="middle" x="295.5" y="-405" font-family="Arial" font-size="10.00" fill="#ffffff">2×</text>
</a>
</g>
</g>
<!-- 11&#45;&gt;16 -->
<g id="edge22" class="edge"><title>11&#45;&gt;16</title>
<path fill="none" stroke="#0c698b" stroke-width="0.74" d="M383.201,-519.835C379.867,-516.922 376.574,-513.94 373.5,-511 354.519,-492.843 334.651,-470.887 319.718,-453.704"/>
<polygon fill="#0c698b" stroke="#0c698b" stroke-width="0.74" points="320.751,-452.599 316.798,-450.334 318.476,-454.57 320.751,-452.599"/>
<text text-anchor="middle" x="390.5" y="-488" font-family="Arial" font-size="10.00" fill="#0c698b">18.40%</text>
<text text-anchor="middle" x="390.5" y="-477" font-family="Arial" font-size="10.00" fill="#0c698b">2×</text>
</g>
<!-- 18 -->
<g id="node22" class="node"><title>18</title>
<g id="a_node22"><a xlink:title="/usr/lib/python2.7/sre_parse.py">
<polygon fill="#0d1074" stroke="#0d1074" points="153.5,-389 45.5,-389 45.5,-337 153.5,-337 153.5,-389"/>
<text text-anchor="middle" x="99.5" y="-377" font-family="Arial" font-size="10.00" fill="#ffffff">sre_parse:206:match</text>
<text text-anchor="middle" x="99.5" y="-366" font-family="Arial" font-size="10.00" fill="#ffffff">0.80%</text>
<text text-anchor="middle" x="99.5" y="-355" font-family="Arial" font-size="10.00" fill="#ffffff">(0.00%)</text>
<text text-anchor="middle" x="99.5" y="-344" font-family="Arial" font-size="10.00" fill="#ffffff">2×</text>
</a>
</g>
</g>
<!-- 11&#45;&gt;18 -->
<g id="edge23" class="edge"><title>11&#45;&gt;18</title>
<path fill="none" stroke="#0d1074" stroke-width="0.5" d="M348.722,-543.276C284.305,-540.343 191.824,-532.416 163.5,-511 125.69,-482.412 109.863,-426.809 103.503,-392.783"/>
<polygon fill="#0d1074" stroke="#0d1074" stroke-width="0.5" points="104.675,-392.378 102.845,-389.152 102.264,-392.815 104.675,-392.378"/>
<text text-anchor="middle" x="177.5" y="-488" font-family="Arial" font-size="10.00" fill="#0d1074">0.80%</text>
<text text-anchor="middle" x="177.5" y="-477" font-family="Arial" font-size="10.00" fill="#0d1074">2×</text>
</g>
<!-- 29 -->
<g id="node23" class="node"><title>29</title>
<g id="a_node23"><a xlink:title="/usr/lib/python2.7/sre_parse.py">
<polygon fill="#0d1a77" stroke="#0d1a77" points="173,-328 60,-328 60,-276 173,-276 173,-328"/>
<text text-anchor="middle" x="116.5" y="-316" font-family="Arial" font-size="10.00" fill="#ffffff">sre_parse:149:append</text>
<text text-anchor="middle" x="116.5" y="-305" font-family="Arial" font-size="10.00" fill="#ffffff">3.20%</text>
<text text-anchor="middle" x="116.5" y="-294" font-family="Arial" font-size="10.00" fill="#ffffff">(3.20%)</text>
<text text-anchor="middle" x="116.5" y="-283" font-family="Arial" font-size="10.00" fill="#ffffff">7×</text>
</a>
</g>
</g>
<!-- 11&#45;&gt;29 -->
<g id="edge24" class="edge"><title>11&#45;&gt;29</title>
<path fill="none" stroke="#0d1074" stroke-width="0.5" d="M348.84,-529.031C303.729,-515.003 245.371,-490.377 207.5,-450 169.929,-409.944 190.628,-380.802 157.5,-337 155.889,-334.87 154.12,-332.789 152.249,-330.771"/>
<polygon fill="#0d1074" stroke="#0d1074" stroke-width="0.5" points="152.95,-329.733 149.64,-328.061 151.185,-331.432 152.95,-329.733"/>
<text text-anchor="middle" x="221.5" y="-427" font-family="Arial" font-size="10.00" fill="#0d1074">0.80%</text>
<text text-anchor="middle" x="221.5" y="-416" font-family="Arial" font-size="10.00" fill="#0d1074">1×</text>
</g>
<!-- 16&#45;&gt;29 -->
<g id="edge32" class="edge"><title>16&#45;&gt;29</title>
<path fill="none" stroke="#0d1776" stroke-width="0.5" d="M240.48,-400.757C235.373,-397.31 230.589,-393.404 226.5,-389 209.54,-370.736 223.754,-353.971 205.5,-337 195.927,-328.1 189.779,-332.482 177.5,-328 177.238,-327.904 176.975,-327.808 176.712,-327.712"/>
<polygon fill="#0d1776" stroke="#0d1776" stroke-width="0.5" points="176.974,-326.502 173.266,-326.434 176.122,-328.799 176.974,-326.502"/>
<text text-anchor="middle" x="240.5" y="-366" font-family="Arial" font-size="10.00" fill="#0d1776">2.40%</text>
<text text-anchor="middle" x="240.5" y="-355" font-family="Arial" font-size="10.00" fill="#0d1776">6×</text>
</g>
<!-- 27 -->
<g id="node27" class="node"><title>27</title>
<g id="a_node27"><a xlink:title="/usr/lib/python2.7/sre_parse.py">
<polygon fill="#0d257a" stroke="#0d257a" points="277,-328 182,-328 182,-276 277,-276 277,-328"/>
<text text-anchor="middle" x="229.5" y="-316" font-family="Arial" font-size="10.00" fill="#ffffff">sre_parse:212:get</text>
<text text-anchor="middle" x="229.5" y="-305" font-family="Arial" font-size="10.00" fill="#ffffff">5.60%</text>
<text text-anchor="middle" x="229.5" y="-294" font-family="Arial" font-size="10.00" fill="#ffffff">(2.40%)</text>
<text text-anchor="middle" x="229.5" y="-283" font-family="Arial" font-size="10.00" fill="#ffffff">8×</text>
</a>
</g>
</g>
<!-- 16&#45;&gt;27 -->
<g id="edge30" class="edge"><title>16&#45;&gt;27</title>
<path fill="none" stroke="#0d257a" stroke-width="0.5" d="M285.952,-397.715C278.857,-380.129 268.381,-356.446 256.5,-337 255.314,-335.058 254.032,-333.102 252.693,-331.161"/>
<polygon fill="#0d257a" stroke="#0d257a" stroke-width="0.5" points="253.57,-330.279 250.549,-328.128 251.569,-331.693 253.57,-330.279"/>
<text text-anchor="middle" x="296.5" y="-366" font-family="Arial" font-size="10.00" fill="#0d257a">5.60%</text>
<text text-anchor="middle" x="296.5" y="-355" font-family="Arial" font-size="10.00" fill="#0d257a">7×</text>
</g>
<!-- 28 -->
<g id="node28" class="node"><title>28</title>
<g id="a_node28"><a xlink:title="/usr/lib/python2.7/sre_parse.py">
<polygon fill="#0d1074" stroke="#0d1074" points="396.5,-328 286.5,-328 286.5,-276 396.5,-276 396.5,-328"/>
<text text-anchor="middle" x="341.5" y="-316" font-family="Arial" font-size="10.00" fill="#ffffff">sre_parse:92:__init__</text>
<text text-anchor="middle" x="341.5" y="-305" font-family="Arial" font-size="10.00" fill="#ffffff">0.80%</text>
<text text-anchor="middle" x="341.5" y="-294" font-family="Arial" font-size="10.00" fill="#ffffff">(0.80%)</text>
<text text-anchor="middle" x="341.5" y="-283" font-family="Arial" font-size="10.00" fill="#ffffff">3×</text>
</a>
</g>
</g>
<!-- 16&#45;&gt;28 -->
<g id="edge31" class="edge"><title>16&#45;&gt;28</title>
<path fill="none" stroke="#0d1074" stroke-width="0.5" d="M312.094,-397.787C313.696,-394.883 315.204,-391.917 316.5,-389 324.658,-370.638 330.95,-348.9 335.182,-331.873"/>
<polygon fill="#0d1074" stroke="#0d1074" stroke-width="0.5" points="336.464,-331.785 336.106,-328.094 334.084,-331.203 336.464,-331.785"/>
<text text-anchor="middle" x="347.5" y="-366" font-family="Arial" font-size="10.00" fill="#0d1074">0.80%</text>
<text text-anchor="middle" x="347.5" y="-355" font-family="Arial" font-size="10.00" fill="#0d1074">2×</text>
</g>
<!-- 18&#45;&gt;7 -->
<g id="edge33" class="edge"><title>18&#45;&gt;7</title>
<path fill="none" stroke="#0d1074" stroke-width="0.5" d="M45.3183,-345.048C38.2531,-340.596 31.9395,-335.006 27.5,-328 15.1297,-308.478 19.8501,-297.808 27.5,-276 32.2626,-262.423 41.186,-249.575 50.3134,-238.942"/>
<polygon fill="#0d1074" stroke="#0d1074" stroke-width="0.5" points="51.2532,-239.729 52.6359,-236.288 49.4093,-238.115 51.2532,-239.729"/>
<text text-anchor="middle" x="41.5" y="-305" font-family="Arial" font-size="10.00" fill="#0d1074">0.80%</text>
<text text-anchor="middle" x="41.5" y="-294" font-family="Arial" font-size="10.00" fill="#0d1074">1×</text>
</g>
<!-- 27&#45;&gt;7 -->
<g id="edge41" class="edge"><title>27&#45;&gt;7</title>
<path fill="none" stroke="#0d1a77" stroke-width="0.5" d="M187.717,-275.93C168.131,-264.179 144.759,-250.156 124.756,-238.153"/>
<polygon fill="#0d1a77" stroke="#0d1a77" stroke-width="0.5" points="124.951,-236.842 121.319,-236.092 123.69,-238.943 124.951,-236.842"/>
<text text-anchor="middle" x="186.5" y="-259" font-family="Arial" font-size="10.00" fill="#0d1a77">3.20%</text>
<text text-anchor="middle" x="186.5" y="-248" font-family="Arial" font-size="10.00" fill="#0d1a77">8×</text>
</g>
<!-- 22&#45;&gt;7 -->
<g id="edge38" class="edge"><title>22&#45;&gt;7</title>
<path fill="none" stroke="#0d1375" stroke-width="0.5" d="M41.8336,-458.91C31.2232,-440.375 18.1453,-414.105 12.5,-389 7.4297,-366.452 11.3675,-360.083 12.5,-337 14.5417,-295.386 4.73301,-277.741 30.5,-245 32.1729,-242.874 34.0147,-240.828 35.9735,-238.868"/>
<polygon fill="#0d1375" stroke="#0d1375" stroke-width="0.5" points="37.0296,-239.553 38.7121,-236.249 35.3361,-237.783 37.0296,-239.553"/>
<text text-anchor="middle" x="26.5" y="-366" font-family="Arial" font-size="10.00" fill="#0d1375">1.60%</text>
<text text-anchor="middle" x="26.5" y="-355" font-family="Arial" font-size="10.00" fill="#0d1375">1×</text>
</g>
<!-- 32 -->
<g id="node30" class="node"><title>32</title>
<g id="a_node30"><a xlink:title="~">
<polygon fill="#0d1074" stroke="#0d1074" points="797,-1032 570,-1032 570,-980 797,-980 797,-1032"/>
<text text-anchor="middle" x="683.5" y="-1020" font-family="Arial" font-size="10.00" fill="#ffffff">~:0:&lt;method &#39;disable&#39; of &#39;_lsprof.Profiler&#39; objects&gt;</text>
<text text-anchor="middle" x="683.5" y="-1009" font-family="Arial" font-size="10.00" fill="#ffffff">0.80%</text>
<text text-anchor="middle" x="683.5" y="-998" font-family="Arial" font-size="10.00" fill="#ffffff">(0.80%)</text>
<text text-anchor="middle" x="683.5" y="-987" font-family="Arial" font-size="10.00" fill="#ffffff">1×</text>
</a>
</g>
</g>
</g>
</svg>
